<svg xmlns="http://www.w3.org/2000/svg" viewBox="0 0 1200 800" width="1200" height="800" preserveAspectRatio="xMidYMid slice"><defs><linearGradient id="lg1" x1="0" y1="0" x2="0" y2="1"><stop offset="0" stop-color="#2a63a8" stop-opacity="1"/><stop offset="0.45" stop-color="#7fb2dc" stop-opacity="1"/><stop offset="1" stop-color="#e2d3b4" stop-opacity="1"/></linearGradient><radialGradient id="rg2" cx="0.5" cy="0.5" r="0.5"><stop offset="0" stop-color="#fff6de" stop-opacity="0.6"/><stop offset="0.55" stop-color="#fff6de" stop-opacity="0.21"/><stop offset="1" stop-color="#fff6de" stop-opacity="0"/></radialGradient><linearGradient id="lg3" x1="0" y1="0" x2="0" y2="1"><stop offset="0" stop-color="#e2d3b4" stop-opacity="0"/><stop offset="0.5" stop-color="#e2d3b4" stop-opacity="0.28"/><stop offset="1" stop-color="#e2d3b4" stop-opacity="0"/></linearGradient><radialGradient id="rg4" cx="0.5" cy="0.5" r="0.78"><stop offset="0.45" stop-color="#000000" stop-opacity="0"/><stop offset="1" stop-color="#000000" stop-opacity="0.4"/></radialGradient><filter id="gr5"><feTurbulence type="fractalNoise" baseFrequency="0.9" numOctaves="3" stitchTiles="stitch"/><feColorMatrix type="saturate" values="0"/></filter></defs><rect width="1200" height="800" fill="url(#lg1)"/><circle cx="940" cy="150" r="300" fill="url(#rg2)"/><path d="M 0.0 382.1 Q 0.0 382.1 100.0 377.5 Q 200.0 373.0 300.0 383.0 Q 400.0 392.9 500.0 384.7 Q 600.0 376.5 700.0 373.5 Q 800.0 370.5 900.0 381.9 Q 1000.0 393.3 1100.0 410.9 L 1200.0 428.4 L 1200.0 800.0 L 0 800.0 Z" fill="#b99a6d" opacity="0.75"/><path d="M 0.0 455.8 Q 0.0 455.8 85.7 474.9 Q 171.4 494.0 257.1 472.3 Q 342.9 450.6 428.6 465.6 Q 514.3 480.7 600.0 464.5 Q 685.7 448.4 771.4 452.6 Q 857.1 456.9 942.9 476.4 Q 1028.6 496.0 1114.3 475.4 L 1200.0 454.9 L 1200.0 800.0 L 0 800.0 Z" fill="#9c7d54"/><path d="M 120 540 L 1080 540 L 1040 592 L 160 592 Z" fill="#8a6a44"/><path d="M 182 592 L 1018 592 L 978 644 L 222 644 Z" fill="#7d603d"/><path d="M 244 644 L 956 644 L 916 696 L 284 696 Z" fill="#705636"/><path d="M 306 696 L 894 696 L 854 748 L 346 748 Z" fill="#644b30"/><path d="M 368 748 L 832 748 L 792 800 L 408 800 Z" fill="#574129"/><g fill="#3a2c1c"><rect x="470" y="560" width="120" height="46" rx="6"/><rect x="486" y="530" width="62" height="34" rx="5"/><path d="M 588 546 L 700 486 L 712 502 L 604 566 Z"/><path d="M 700 486 l 40 30 l -22 26 l -34 -26 Z"/><rect x="462" y="602" width="136" height="16" rx="8"/></g><g fill="#4a3826"><rect x="800" y="596" width="150" height="42" rx="5"/><path d="M 800 596 l 22 -34 l 96 0 l 16 34 Z"/><circle cx="836" cy="646" r="17"/><circle cx="916" cy="646" r="17"/></g><rect x="0" y="340" width="1200" height="160" fill="url(#lg3)"/><rect width="1200" height="800" fill="url(#rg4)"/><rect width="1200" height="800" filter="url(#gr5)" opacity="0.12" style="mix-blend-mode:overlay"/></svg>