<svg xmlns="http://www.w3.org/2000/svg" viewBox="0 0 800 500" width="800" height="500" preserveAspectRatio="xMidYMid slice"><defs><linearGradient id="lg1" x1="0" y1="0" x2="0" y2="1"><stop offset="0" stop-color="#f3f0ea" stop-opacity="1"/><stop offset="1" stop-color="#d9d4cb" stop-opacity="1"/></linearGradient><radialGradient id="rg2" cx="0.5" cy="0.5" r="0.5"><stop offset="0" stop-color="#ffffff" stop-opacity="0.9"/><stop offset="0.55" stop-color="#ffffff" stop-opacity="0.315"/><stop offset="1" stop-color="#ffffff" stop-opacity="0"/></radialGradient><radialGradient id="rg3" cx="0.5" cy="0.5" r="0.78"><stop offset="0.45" stop-color="#000000" stop-opacity="0"/><stop offset="1" stop-color="#000000" stop-opacity="0.32"/></radialGradient><filter id="gr4"><feTurbulence type="fractalNoise" baseFrequency="0.9" numOctaves="3" stitchTiles="stitch"/><feColorMatrix type="saturate" values="0"/></filter></defs><rect width="800" height="500" fill="url(#lg1)"/><rect x="470" y="0" width="330" height="500" fill="#eaf1f7"/><circle cx="640" cy="120" r="260" fill="url(#rg2)"/><rect x="470" y="0" width="8" height="500" fill="#c2ccd6"/><rect x="0" y="330" width="800" height="170" fill="#3a3129"/><rect x="0" y="326" width="800" height="10" fill="#544838"/><g transform="translate(60 300) rotate(-6)"><rect width="150" height="106" rx="3" fill="#ffffff" opacity="0.97"/><rect x="14" y="18" width="60" height="5" fill="#b9bec6"/><rect x="14" y="33" width="87" height="5" fill="#b9bec6"/><rect x="14" y="48" width="114" height="5" fill="#b9bec6"/><rect x="14" y="63" width="141" height="5" fill="#b9bec6"/><rect x="14" y="78" width="68" height="5" fill="#b9bec6"/></g><g transform="translate(210 312) rotate(3)"><rect width="150" height="106" rx="3" fill="#ffffff" opacity="0.97"/><rect x="14" y="18" width="60" height="5" fill="#b9bec6"/><rect x="14" y="33" width="87" height="5" fill="#b9bec6"/><rect x="14" y="48" width="114" height="5" fill="#b9bec6"/><rect x="14" y="63" width="141" height="5" fill="#b9bec6"/><rect x="14" y="78" width="68" height="5" fill="#b9bec6"/></g><g transform="translate(340 296) rotate(-2)"><rect width="150" height="106" rx="3" fill="#ffffff" opacity="0.97"/><rect x="14" y="18" width="60" height="5" fill="#b9bec6"/><rect x="14" y="33" width="87" height="5" fill="#b9bec6"/><rect x="14" y="48" width="114" height="5" fill="#b9bec6"/><rect x="14" y="63" width="141" height="5" fill="#b9bec6"/><rect x="14" y="78" width="68" height="5" fill="#b9bec6"/></g><rect x="80" y="90" width="300" height="190" rx="6" fill="#ffffff" opacity="0.95"/><rect x="104" y="206" width="34" height="52" fill="#b87333"/><rect x="158" y="170" width="34" height="88" fill="#9e6b3c"/><rect x="212" y="192" width="34" height="66" fill="#836244"/><rect x="266" y="138" width="34" height="120" fill="#695a4d"/><rect x="320" y="110" width="34" height="148" fill="#4e5155"/><rect width="800" height="500" fill="url(#rg3)"/><rect width="800" height="500" filter="url(#gr4)" opacity="0.1" style="mix-blend-mode:overlay"/></svg>